<?xml version="1.0" standalone="no"?>
<!DOCTYPE svg PUBLIC "-//W3C//DTD SVG 20010904//EN"
 "http://www.w3.org/TR/2001/REC-SVG-20010904/DTD/svg10.dtd">
<svg version="1.0" xmlns="http://www.w3.org/2000/svg"
 width="400.000000pt" height="400.000000pt" viewBox="0 0 400.000000 400.000000"
 preserveAspectRatio="xMidYMid meet">

<g transform="translate(0.000000,400.000000) scale(0.100000,-0.100000)"
fill="#000000" stroke="none">
<path d="M1743 3733 c-7 -3 -13 -16 -13 -30 0 -19 4 -24 16 -19 9 3 25 6 36 6
13 0 18 6 16 16 -3 18 -36 34 -55 27z"/>
<path d="M1790 3666 c0 -15 18 -31 26 -23 7 7 -7 37 -17 37 -5 0 -9 -6 -9 -14z"/>
<path d="M1770 3640 c0 -5 0 -13 1 -16 0 -4 -5 -10 -12 -14 -7 -5 -12 -22 -11
-39 0 -17 -4 -33 -9 -36 -19 -13 -8 -25 17 -19 24 6 25 5 13 -14 -7 -11 -17
-18 -21 -16 -4 3 -8 0 -8 -5 0 -6 11 -11 24 -11 13 0 39 -3 57 -6 19 -3 30 -2
24 3 -17 14 -17 36 0 30 21 -8 45 2 45 19 0 19 25 18 41 -3 13 -15 12 -16 -9
-11 -12 4 -20 2 -16 -3 3 -5 14 -9 24 -9 22 0 35 -16 20 -25 -5 -3 -10 -1 -10
6 0 8 -7 6 -22 -4 -13 -8 -22 -20 -21 -26 2 -6 -4 -11 -13 -11 -8 0 -29 -13
-46 -29 -26 -24 -34 -27 -53 -17 -16 7 -20 13 -12 19 9 6 9 10 -1 14 -6 2 -10
9 -6 14 3 5 -2 9 -10 9 -9 0 -16 5 -16 11 0 5 -4 7 -10 4 -15 -9 -12 -35 4
-29 10 4 15 -5 18 -31 4 -34 3 -36 -20 -30 -17 4 -29 0 -43 -16 -24 -28 -24
-28 11 -40 16 -6 28 -15 25 -20 -3 -4 -12 -6 -20 -2 -9 3 -22 0 -30 -7 -8 -6
-19 -9 -25 -5 -5 3 -10 1 -10 -4 0 -6 7 -11 15 -11 8 0 15 -4 15 -10 0 -5 -13
-7 -30 -3 -23 4 -35 1 -49 -16 -10 -11 -21 -18 -24 -14 -4 3 -13 1 -20 -5 -8
-7 -17 -9 -20 -5 -4 3 -13 0 -22 -7 -11 -9 -15 -9 -15 -1 0 8 -7 7 -22 -3 -13
-8 -43 -18 -68 -21 -49 -7 -65 -15 -34 -16 18 0 18 -1 -1 -9 -11 -4 -24 -4
-28 0 -12 11 -58 -1 -50 -13 4 -6 -2 -8 -16 -4 -18 4 -23 0 -28 -24 -6 -31
-10 -34 -33 -19 -13 8 -12 10 3 10 19 0 21 8 7 30 -7 11 -10 11 -10 2 0 -7 -6
-12 -12 -11 -23 4 -95 -21 -122 -42 -28 -22 -35 -49 -12 -49 7 0 28 -3 46 -7
27 -5 32 -3 25 8 -5 8 1 6 13 -5 12 -10 19 -22 17 -26 -6 -10 29 -50 44 -50 6
0 11 -7 11 -15 0 -23 -20 -18 -48 13 -17 19 -23 22 -18 8 6 -16 4 -17 -9 -6
-9 7 -18 11 -21 8 -8 -9 -13 -49 -5 -44 4 3 13 0 21 -5 13 -8 13 -10 0 -18
-10 -7 -17 -6 -23 2 -7 9 -10 9 -14 0 -2 -7 -12 -13 -21 -13 -15 1 -15 2 1 14
22 17 22 38 -3 66 -11 12 -17 27 -14 31 3 5 0 9 -7 9 -7 0 -20 7 -29 15 -14
13 -19 13 -36 0 -15 -12 -16 -16 -6 -23 11 -7 7 -11 -12 -16 -14 -3 -26 -13
-26 -22 0 -9 -5 -12 -12 -8 -6 4 -8 3 -5 -3 4 -5 -3 -19 -13 -31 -11 -12 -21
-29 -23 -39 -2 -10 -10 -32 -19 -48 -24 -46 -26 -207 -3 -244 5 -10 4 -12 -3
-7 -14 8 27 -66 41 -75 5 -4 7 -11 3 -17 -3 -5 6 -13 21 -17 15 -3 23 -9 17
-13 -16 -11 -10 -36 9 -40 15 -3 17 1 11 22 -7 30 3 34 22 9 20 -26 18 -54 -3
-51 -12 2 -19 -4 -21 -17 -3 -24 36 -45 64 -34 10 4 16 8 12 10 -21 5 -29 7
-38 8 -18 2 -11 21 8 21 10 0 23 5 30 12 9 9 12 8 12 -7 1 -18 2 -19 13 -4 12
16 15 15 34 -7 22 -25 8 -35 -16 -11 -7 6 -11 8 -10 2 6 -28 -14 -46 -51 -43
-21 1 -46 -4 -54 -12 -9 -7 -20 -10 -23 -6 -4 4 -2 11 5 15 7 4 -12 7 -42 7
-30 -1 -52 -4 -49 -8 2 -5 11 -8 19 -8 8 0 14 -5 14 -12 0 -6 -3 -8 -7 -5 -3
4 -12 2 -18 -3 -9 -7 -21 -7 -39 1 -29 13 -35 29 -11 29 8 0 15 7 15 15 0 14
-3 14 -24 -1 -14 -8 -33 -15 -43 -14 -35 4 -51 0 -74 -20 -21 -17 -22 -21 -9
-31 13 -9 13 -10 -1 -6 -9 3 -22 0 -29 -6 -10 -9 -11 -9 -6 3 4 8 -9 -3 -28
-25 -20 -22 -41 -39 -46 -37 -17 4 -11 -18 6 -25 11 -4 12 -8 4 -13 -9 -5 -9
-9 -1 -14 6 -4 11 -3 11 3 0 5 7 17 16 26 13 13 19 13 32 3 12 -10 14 -10 8 0
-4 6 -3 12 3 12 15 0 26 -23 13 -28 -6 -2 -8 -11 -5 -20 6 -14 4 -15 -8 -5
-11 9 -20 8 -39 -7 -23 -17 -26 -17 -42 -3 -10 9 -18 23 -18 32 0 24 -40 -47
-61 -108 -21 -59 -19 -68 8 -56 32 14 39 13 39 -5 0 -14 -7 -17 -30 -13 -26 4
-28 3 -17 -11 11 -14 11 -16 -2 -16 -12 0 -16 -9 -15 -35 1 -24 5 -34 14 -31
7 3 15 -2 18 -10 8 -22 8 -24 -9 -24 -8 0 -15 -7 -15 -15 0 -8 7 -15 15 -15
12 0 14 -4 5 -20 -8 -15 -6 -21 10 -30 11 -6 20 -7 20 -1 0 5 8 12 18 16 14 5
15 4 5 -6 -16 -16 -17 -39 -2 -39 5 0 7 5 4 10 -3 6 -1 10 4 10 6 0 11 -7 11
-15 0 -8 -6 -15 -12 -15 -10 0 -9 -3 1 -9 7 -5 10 -14 6 -21 -6 -9 -10 -9 -17
1 -7 11 -8 9 -4 -4 3 -10 6 -23 6 -28 0 -6 5 -7 11 -3 7 4 10 1 7 -7 -3 -8 4
-22 14 -31 18 -15 34 -93 18 -83 -4 3 -13 -2 -20 -10 -7 -8 -16 -15 -21 -15
-9 0 -71 -44 -139 -98 -19 -16 -43 -31 -52 -35 -10 -3 -18 -11 -18 -17 0 -6
-11 -21 -25 -34 -28 -26 -75 -92 -75 -105 0 -5 -9 -19 -19 -33 -11 -13 -24
-44 -31 -68 -7 -25 -16 -50 -21 -56 -5 -7 -9 -25 -8 -40 0 -16 -2 -44 -4 -61
-3 -18 -2 -33 2 -33 5 0 5 -15 2 -32 -14 -69 30 -258 60 -258 5 0 9 -6 9 -12
1 -16 77 -97 113 -121 15 -9 33 -17 42 -17 8 0 15 -5 15 -11 0 -9 62 -40 76
-38 4 0 10 -3 13 -8 5 -7 101 -40 216 -73 17 -5 62 -11 100 -15 39 -3 91 -13
117 -21 26 -9 51 -13 55 -11 5 3 58 0 118 -5 61 -5 137 -11 170 -13 33 -2 60
-4 60 -4 0 -9 1051 -23 1067 -14 4 2 78 5 165 7 87 2 183 6 213 9 30 3 96 8
145 12 50 4 95 11 102 17 7 5 17 7 22 3 6 -3 39 1 73 9 35 8 79 18 98 21 19 3
46 10 60 15 14 4 53 16 87 27 35 10 63 21 63 26 0 4 11 7 24 7 13 0 29 7 36
15 7 8 20 15 30 15 15 0 28 8 77 50 7 5 15 10 19 10 17 0 141 151 142 173 0 4
3 18 7 30 4 12 10 31 13 42 9 30 7 257 -2 280 -5 11 -10 27 -12 36 -2 9 -9 29
-15 45 -7 16 -13 34 -13 39 -2 16 -40 75 -49 75 -4 0 -5 5 -2 10 3 5 2 10 -4
10 -5 0 -12 9 -16 20 -5 17 -71 90 -81 90 -4 0 -21 14 -72 60 -18 17 -37 30
-42 30 -6 0 -10 5 -10 12 0 6 -3 9 -6 6 -3 -3 -19 7 -37 23 -17 16 -39 32 -48
34 -31 10 -30 35 1 73 16 20 30 45 30 54 0 10 4 18 9 18 5 0 15 16 21 35 6 19
16 35 21 35 6 0 9 6 7 13 -1 6 4 23 12 37 16 30 17 250 1 250 -4 0 -15 18 -25
41 -11 22 -28 45 -38 50 -10 5 -18 15 -18 22 0 19 -59 78 -125 123 -34 23
-155 61 -227 70 -52 7 -60 21 -30 52 36 39 48 59 74 127 23 60 26 80 22 145
-7 106 -8 110 -15 110 -4 0 -10 12 -14 28 -14 57 -119 192 -143 184 -16 -5
-44 17 -36 29 3 5 2 8 -3 7 -4 -2 -26 8 -48 22 -76 46 -186 86 -211 76 -8 -3
-14 -1 -14 4 0 5 -21 12 -47 15 -27 4 -53 13 -58 20 -6 7 -30 15 -53 19 -23 3
-51 10 -61 15 -10 6 -21 7 -25 4 -3 -3 -6 -2 -6 3 0 16 -70 10 -80 -6 -9 -13
-10 -13 -10 0 0 9 6 22 13 29 7 8 7 11 1 8 -7 -4 -17 0 -24 8 -7 8 -18 15 -25
15 -7 0 -16 7 -19 16 -3 8 -10 12 -16 9 -5 -3 -10 -1 -10 5 0 8 -9 10 -24 6
-16 -4 -26 -1 -30 10 -3 8 -2 12 4 9 6 -3 10 0 10 7 0 16 -44 38 -59 29 -6 -4
-7 -12 -1 -21 11 -18 13 -40 2 -24 -4 6 -16 15 -26 21 -19 10 -19 11 2 28 20
18 20 18 -44 81 -45 44 -69 62 -81 58 -15 -5 -15 -3 1 10 11 9 14 16 8 16 -7
0 -12 7 -12 15 0 11 -7 14 -24 9 -14 -3 -29 0 -37 9 -8 7 -20 12 -27 9 -22 -7
-13 18 11 28 15 6 17 9 5 9 -9 1 -18 4 -21 9 -2 4 -2 1 -1 -5 2 -7 -4 -13 -12
-13 -8 0 -13 -4 -10 -9 4 -5 1 -11 -5 -13 -17 -6 1 -38 22 -38 10 0 19 -4 19
-9 0 -14 -32 -8 -50 9 -9 8 -15 21 -12 28 2 7 -5 12 -19 13 -17 1 -19 3 -6 6
23 6 22 30 -3 43 -14 7 -20 7 -20 0z m217 -172 c-3 -8 -6 -5 -6 6 -1 11 2 17
5 13 3 -3 4 -12 1 -19z m26 -106 c-4 -9 -9 -10 -16 -3 -5 5 -17 7 -26 4 -11
-3 -12 -2 -4 4 19 14 51 11 46 -5z m-200 -42 c-7 -8 -22 24 -16 34 4 5 10 1
13 -10 4 -10 6 -21 3 -24z m62 10 c3 -5 2 -10 -4 -10 -5 0 -13 5 -16 10 -3 6
-2 10 4 10 5 0 13 -4 16 -10z m125 -15 c7 -8 9 -15 6 -15 -4 0 -14 7 -22 15
-9 8 -11 15 -6 15 5 0 15 -7 22 -15z m95 5 c-3 -5 -10 -10 -16 -10 -5 0 -9 5
-9 10 0 6 7 10 16 10 8 0 12 -4 9 -10z m-315 -10 c0 -5 -8 -10 -17 -10 -15 0
-16 2 -3 10 19 12 20 12 20 0z m80 -10 c0 -13 -11 -13 -30 0 -12 8 -11 10 8
10 12 0 22 -4 22 -10z m52 -22 c-7 -7 -12 -8 -12 -2 0 14 12 26 19 19 2 -3 -1
-11 -7 -17z m258 12 c0 -5 -4 -10 -9 -10 -5 0 -16 -3 -25 -6 -9 -3 -16 -1 -16
6 0 6 5 8 10 5 6 -3 10 -1 10 4 0 6 7 11 15 11 8 0 15 -4 15 -10z m-173 -7
c-11 -10 13 -32 29 -26 8 3 14 0 14 -6 0 -6 -8 -11 -18 -11 -10 0 -23 -5 -30
-12 -9 -9 -12 -9 -12 0 0 7 6 12 13 12 7 0 8 3 2 8 -15 11 -18 42 -4 42 7 0 9
-3 6 -7z m233 -7 c0 -3 -4 -8 -10 -11 -5 -3 -10 -1 -10 4 0 6 5 11 10 11 6 0
10 -2 10 -4z m-400 -33 c0 -3 -9 -3 -20 0 -11 3 -20 1 -20 -5 0 -5 -5 -6 -11
-2 -8 5 -8 9 1 14 12 8 50 2 50 -7z m298 -2 c10 -6 7 -10 -12 -13 -18 -4 -26
-1 -26 8 0 16 18 18 38 5z m-178 -31 c0 -5 -11 -10 -24 -10 -14 0 -28 5 -31
10 -4 6 7 10 24 10 17 0 31 -4 31 -10z m300 -11 c0 -5 -11 -9 -25 -9 -24 0
-32 10 -19 22 8 8 44 -3 44 -13z m-356 -20 c-8 -14 -24 -10 -24 6 0 9 6 12 15
9 8 -4 12 -10 9 -15z m-324 1 c0 -5 -5 -10 -11 -10 -5 0 -7 5 -4 10 3 6 8 10
11 10 2 0 4 -4 4 -10z m190 0 c0 -5 -5 -10 -11 -10 -5 0 -7 5 -4 10 3 6 8 10
11 10 2 0 4 -4 4 -10z m432 -15 c3 -14 1 -25 -3 -25 -5 0 -9 11 -9 25 0 14 2
25 4 25 2 0 6 -11 8 -25z m-172 4 c0 -5 5 -7 10 -4 6 3 10 1 10 -4 0 -16 -16
-13 -30 4 -9 10 -9 15 -1 15 6 0 11 -5 11 -11z m-570 -3 c0 -3 -4 -8 -10 -11
-5 -3 -10 -1 -10 4 0 6 5 11 10 11 6 0 10 -2 10 -4z m75 -6 c3 -5 2 -10 -4
-10 -5 0 -13 5 -16 10 -3 6 -2 10 4 10 5 0 13 -4 16 -10z m565 0 c0 -5 -4 -10
-10 -10 -5 0 -10 5 -10 10 0 6 5 10 10 10 6 0 10 -4 10 -10z m440 -10 c0 -11
-4 -20 -10 -20 -5 0 -10 9 -10 20 0 11 5 20 10 20 6 0 10 -9 10 -20z m-940 1
c0 -5 -7 -11 -15 -15 -15 -5 -20 5 -8 17 9 10 23 9 23 -2z m320 -2 c0 -7 10
-9 26 -5 21 6 23 4 13 -7 -20 -21 -55 -19 -56 3 -1 11 2 20 8 20 5 0 9 -5 9
-11z m360 -9 c0 -5 -4 -10 -10 -10 -5 0 -10 5 -10 10 0 6 5 10 10 10 6 0 10
-4 10 -10z m-557 -7 c-7 -2 -19 -2 -25 0 -7 3 -2 5 12 5 14 0 19 -2 13 -5z
m-333 -11 c0 -4 -10 -9 -22 -9 -18 -2 -20 0 -8 7 18 12 30 13 30 2z m250 -6
c0 -8 -7 -17 -16 -20 -13 -5 -14 -4 -6 7 7 8 9 17 5 20 -3 4 -1 7 5 7 7 0 12
-6 12 -14z m214 -1 c-7 -16 -24 -21 -24 -6 0 8 7 13 27 20 1 1 0 -6 -3 -14z
m266 5 c0 -5 -2 -10 -4 -10 -3 0 -8 5 -11 10 -3 6 -1 10 4 10 6 0 11 -4 11
-10z m150 -6 c0 -2 -9 -4 -21 -4 -11 0 -18 4 -14 10 5 8 35 3 35 -6z m315 6
c-3 -5 -14 -10 -23 -9 -14 0 -13 2 3 9 27 11 27 11 20 0z m-1130 -10 c-3 -5
-11 -10 -16 -10 -6 0 -7 5 -4 10 3 6 11 10 16 10 6 0 7 -4 4 -10z m129 -20
c-6 -6 -10 -2 -11 12 -2 16 1 18 10 9 7 -7 8 -14 1 -21z m860 0 c-6 -6 -10 -2
-11 12 -2 16 1 18 10 9 7 -7 8 -14 1 -21z m-914 -6 c0 -18 -4 -18 -24 5 -17
19 -17 19 3 14 12 -3 21 -12 21 -19z m790 6 c-16 -30 -47 -43 -54 -23 -4 9 -3
19 0 22 4 3 9 0 11 -6 6 -18 23 -16 23 1 0 12 9 20 28 25 1 1 -2 -8 -8 -19z
m-416 -1 c-3 -6 -1 -15 6 -19 9 -6 7 -11 -9 -19 -27 -15 -27 -27 2 -26 27 0
38 -19 13 -23 -13 -3 -16 0 -11 9 6 9 3 11 -8 6 -11 -4 -20 1 -27 13 -11 20
-4 50 12 50 5 0 6 5 3 10 -3 6 1 10 10 10 9 0 13 -5 9 -11z m176 1 c0 -5 8
-10 18 -10 14 0 15 -2 2 -10 -8 -5 -10 -10 -4 -10 6 0 9 -10 7 -24 -3 -13 0
-27 6 -30 6 -4 11 -14 11 -23 0 -13 -3 -13 -15 -3 -8 7 -15 19 -15 26 0 8 -7
14 -16 14 -8 0 -12 5 -9 10 3 6 -3 10 -14 10 -26 0 -26 9 -3 38 18 23 32 28
32 12z m-720 -19 c0 -3 -12 -7 -28 -7 -15 -1 -21 1 -14 3 6 3 10 8 7 13 -3 4
4 6 15 3 11 -3 20 -8 20 -12z m600 -28 c-10 -16 -11 -16 -6 0 3 9 1 17 -5 17
-6 0 -7 5 -3 11 4 7 10 7 16 1 7 -7 6 -16 -2 -29z m205 27 c-4 -6 -1 -17 5
-25 14 -17 35 -21 25 -5 -3 6 -1 10 4 10 13 0 14 -10 2 -29 -8 -12 -13 -12
-35 3 -28 18 -34 41 -13 49 18 8 19 8 12 -3z m227 -5 c0 -5 -5 -11 -10 -13 -5
-1 -9 4 -9 13 0 9 4 14 9 13 5 -2 10 -8 10 -13z m-832 -15 c0 -11 -4 -20 -9
-20 -5 0 -7 9 -4 20 3 11 7 20 9 20 2 0 4 -9 4 -20z m690 16 c0 -2 -7 -7 -16
-10 -8 -3 -12 -2 -9 4 6 10 25 14 25 6z m-445 -16 c3 -6 -4 -10 -17 -10 -18 0
-20 2 -8 10 19 12 18 12 25 0z m1060 -9 c-3 -6 -11 -8 -17 -5 -6 4 -5 9 3 15
16 10 23 4 14 -10z m-1367 0 c7 0 10 -6 7 -12 -4 -6 -13 -8 -21 -5 -8 3 -14 0
-14 -5 0 -7 11 -9 26 -6 20 4 24 1 18 -12 -4 -9 -6 -25 -6 -35 1 -14 -2 -16
-11 -7 -6 6 -20 11 -30 11 -16 0 -18 6 -15 30 3 20 0 30 -9 30 -7 0 -13 4 -13
8 0 7 21 8 68 3z m1212 0 c0 -6 -4 -13 -10 -16 -5 -3 -10 1 -10 9 0 9 5 16 10
16 6 0 10 -4 10 -9z m-1300 -16 c7 -9 8 -15 2 -15 -5 0 -12 7 -16 15 -3 8 -4
15 -2 15 2 0 9 -7 16 -15z m910 11 c0 -3 -4 -8 -10 -11 -5 -3 -10 -1 -10 4 0
6 5 11 10 11 6 0 10 -2 10 -4z m-270 -21 c0 -8 -4 -15 -10 -15 -5 0 -7 7 -4
15 4 8 8 15 10 15 2 0 4 -7 4 -15z m-619 -38 c-5 -7 -6 -18 -2 -26 9 -14 42
-12 53 4 4 6 8 2 8 -7 0 -10 8 -18 18 -18 14 0 15 -2 2 -10 -9 -5 -19 -5 -27
2 -10 8 -12 7 -7 -6 4 -11 1 -16 -10 -16 -9 0 -15 6 -13 12 1 7 -18 20 -43 28
-71 25 -77 29 -45 28 46 -1 57 1 50 12 -3 5 -13 6 -23 3 -23 -8 -8 7 20 21 18
10 24 9 26 -2 2 -7 -1 -19 -7 -25z m909 23 c-24 -15 -36 -11 -14 4 10 8 21 12
24 10 2 -3 -2 -9 -10 -14z m-1285 -31 c10 -19 13 -35 7 -45 -8 -15 -10 -15
-15 0 -4 10 -3 15 3 11 6 -3 10 -1 10 4 0 14 -17 14 -25 1 -3 -6 -15 -5 -31 2
l-24 11 23 16 c13 9 22 22 19 30 -8 24 17 1 33 -30z m1405 27 c0 -2 -7 -6 -15
-10 -8 -3 -15 -1 -15 4 0 6 7 10 15 10 8 0 15 -2 15 -4z m-295 -16 c-3 -5 -10
-10 -16 -10 -5 0 -9 5 -9 10 0 6 7 10 16 10 8 0 12 -4 9 -10z m366 -13 c-10
-9 -11 -8 -5 6 3 10 9 15 12 12 3 -3 0 -11 -7 -18z m-176 3 c3 -5 1 -10 -4
-10 -15 0 -9 -22 9 -38 13 -11 11 -11 -7 -2 -16 7 -22 18 -21 35 2 26 12 32
23 15z m-509 -27 c-10 -10 -19 5 -10 18 6 11 8 11 12 0 2 -7 1 -15 -2 -18z
m461 13 c-3 -8 -1 -17 6 -20 7 -2 5 -5 -4 -5 -20 -1 -33 26 -16 33 19 7 19 7
14 -8z m-987 -20 c0 -7 -6 -19 -14 -25 -12 -10 -14 -9 -11 6 2 10 4 21 4 26 2
13 21 7 21 -7z m337 -8 c-3 -8 -6 -5 -6 6 -1 11 2 17 5 13 3 -3 4 -12 1 -19z
m151 10 c-3 -7 -10 -13 -15 -13 -20 0 -28 -16 -13 -26 11 -8 12 -12 3 -16 -7
-2 -13 -13 -13 -24 0 -21 -1 -22 -24 -13 -9 3 -13 11 -9 18 14 21 11 35 -5 29
-22 -8 -14 1 28 31 40 28 54 32 48 14z m-93 -7 c6 -11 -33 -26 -42 -17 -4 3
-1 6 6 6 7 0 9 5 6 10 -3 6 1 10 9 10 8 0 17 -4 21 -9z m-741 -20 c3 -5 -3
-11 -14 -14 -13 -3 -20 0 -20 9 0 15 26 19 34 5z m299 -8 c-3 -7 -9 -11 -13
-8 -4 3 -13 -2 -20 -10 -7 -8 -19 -15 -28 -15 -11 0 -9 6 9 23 26 24 60 31 52
10z m720 -3 c-4 -16 -9 -18 -24 -9 -10 5 -19 6 -19 1 0 -4 -9 -8 -20 -8 -27 0
-12 12 30 24 19 6 36 11 37 11 0 1 -1 -8 -4 -19z m-808 0 c3 -5 1 -10 -4 -10
-6 0 -11 5 -11 10 0 6 2 10 4 10 3 0 8 -4 11 -10z m-131 -9 c4 -5 -3 -7 -14
-4 -23 6 -26 13 -6 13 8 0 17 -4 20 -9z m340 -11 c-10 -4 -21 -6 -24 -3 -8 7
24 22 34 16 5 -4 1 -10 -10 -13z m166 11 c9 -7 2 -9 -23 -7 -20 2 -37 0 -37
-3 0 -15 23 -29 38 -24 8 4 21 -2 29 -13 14 -18 14 -18 11 6 -2 21 1 25 21 22
13 -1 29 2 36 8 9 8 14 6 19 -6 4 -11 2 -15 -6 -11 -14 5 -40 -17 -31 -27 3
-3 -2 -8 -11 -12 -9 -3 -16 -13 -16 -21 0 -11 -7 -13 -25 -9 -14 4 -25 2 -25
-4 0 -15 -17 -12 -23 4 -4 10 -1 13 9 9 8 -3 14 1 14 8 0 10 3 10 12 1 17 -17
33 -15 18 3 -7 8 -23 15 -36 15 -15 0 -24 6 -24 16 0 10 -6 13 -18 10 -15 -5
-18 -2 -16 16 1 13 3 24 3 26 2 6 68 1 81 -7z m1025 -1 c3 -5 1 -10 -4 -10 -6
0 -11 5 -11 10 0 6 2 10 4 10 3 0 8 -4 11 -10z m245 6 c0 -3 -4 -8 -10 -11 -5
-3 -10 -1 -10 4 0 6 5 11 10 11 6 0 10 -2 10 -4z m-1810 -20 c9 -12 8 -15 -8
-13 -12 0 -18 6 -15 14 6 16 8 16 23 -1z m1235 -15 c1 -17 -9 -30 -38 -48 -39
-25 -61 -27 -32 -3 8 7 15 19 15 28 0 19 30 54 43 49 6 -2 11 -13 12 -26z
m240 6 c-11 -6 -23 -12 -27 -13 -5 -1 -10 -2 -13 -3 -3 0 -1 -10 5 -20 7 -13
7 -22 0 -26 -5 -3 -10 -1 -10 4 0 6 -3 10 -7 10 -22 -4 -32 3 -30 20 0 11 5
17 9 15 4 -3 8 0 8 7 0 7 3 10 6 7 3 -3 17 -2 32 2 40 12 50 11 27 -3z m405 9
c0 -3 -4 -8 -10 -11 -5 -3 -10 -1 -10 4 0 6 5 11 10 11 6 0 10 -2 10 -4z
m-1760 -26 c0 -5 -2 -10 -4 -10 -3 0 -8 5 -11 10 -3 6 -1 10 4 10 6 0 11 -4
11 -10z m223 -13 c4 3 7 1 7 -5 0 -7 -9 -12 -20 -12 -14 0 -20 7 -20 23 1 20
2 21 14 5 7 -10 16 -15 19 -11z m632 -6 c-3 -12 -10 -21 -15 -21 -5 0 -4 11 2
25 13 29 23 26 13 -4z m50 19 c3 -5 2 -10 -4 -10 -5 0 -13 5 -16 10 -3 6 -2
10 4 10 5 0 13 -4 16 -10z m343 -17 c0 -12 -4 -20 -9 -18 -4 3 -14 -3 -21 -14
-10 -15 -15 -16 -25 -6 -6 7 -9 16 -6 19 4 3 -5 6 -20 6 -28 0 -45 16 -25 23
7 2 23 1 35 -4 14 -5 23 -4 26 4 3 7 14 13 25 13 14 0 20 -7 20 -23z m622 23
c0 -2 -9 -6 -20 -9 -11 -3 -18 -1 -14 4 5 9 34 13 34 5z m-1540 -44 c0 -15
-23 -30 -37 -25 -7 3 -13 2 -11 -3 3 -9 -5 -14 -22 -14 -5 0 -1 9 10 20 12 12
25 18 30 15 6 -4 10 -1 10 4 0 6 -4 11 -10 11 -5 0 -10 5 -10 10 0 7 6 7 20 0
11 -6 20 -14 20 -18z m376 13 c4 -8 1 -21 -5 -29 -6 -7 -7 -17 -3 -22 4 -4 -1
-2 -10 5 -9 7 -22 10 -28 6 -14 -9 -13 28 2 43 17 17 37 15 44 -3z m-426 -5
c0 -5 -4 -10 -10 -10 -5 0 -10 5 -10 10 0 6 5 10 10 10 6 0 10 -4 10 -10z
m334 -37 c-10 -7 -23 -13 -28 -13 -8 0 -7 3 0 8 6 4 17 18 25 32 12 23 14 23
17 6 2 -11 -4 -25 -14 -33z m-264 7 c0 -5 -5 -10 -11 -10 -5 0 -7 5 -4 10 3 6
8 10 11 10 2 0 4 -4 4 -10z m435 -9 c-3 -6 -11 -11 -16 -11 -5 0 -4 6 3 14 14
16 24 13 13 -3z m339 4 c11 -8 16 -18 12 -22 -3 -4 -16 3 -28 15 -25 25 -13
29 16 7z m-590 -10 c-5 -12 -10 -13 -20 -4 -19 15 -18 19 6 19 13 0 18 -5 14
-15z m31 5 c3 -5 1 -10 -4 -10 -6 0 -11 5 -11 10 0 6 2 10 4 10 3 0 8 -4 11
-10z m262 -6 c-3 -3 -12 -4 -19 -1 -8 3 -5 6 6 6 11 1 17 -2 13 -5z m-780 -10
c-3 -3 -12 -4 -19 -1 -8 3 -5 6 6 6 11 1 17 -2 13 -5z m456 -26 c3 -10 0 -21
-5 -25 -6 -3 -8 -1 -5 4 4 6 -1 14 -10 17 -9 4 -20 1 -25 -6 -4 -7 -8 -8 -8
-2 0 30 46 41 53 12z m522 12 c-3 -5 -12 -10 -18 -10 -7 0 -6 4 3 10 19 12 23
12 15 0z m-445 -15 c0 -8 -7 -15 -15 -15 -9 0 -12 6 -9 15 4 8 10 15 15 15 5
0 9 -7 9 -15z m-670 -10 c0 -9 -6 -12 -15 -8 -9 3 -15 2 -14 -3 4 -25 -1 -38
-12 -27 -8 8 -7 17 3 32 15 24 38 28 38 6z m180 -25 c0 -5 -4 -10 -10 -10 -5
0 -10 5 -10 10 0 6 5 10 10 10 6 0 10 -4 10 -10z m480 0 c0 -6 24 -9 55 -9 31
1 59 -1 62 -5 3 -3 -3 -6 -15 -6 -14 0 -22 -6 -22 -17 0 -15 -2 -16 -10 -3 -5
8 -10 12 -10 8 0 -3 -3 -14 -7 -24 -5 -13 -3 -16 10 -11 11 4 17 1 17 -9 0 -8
-4 -12 -10 -9 -23 14 -51 13 -62 -4 -7 -9 -20 -21 -28 -26 -13 -8 -13 -7 0 11
7 10 21 25 29 32 10 8 11 12 2 12 -7 0 -9 5 -5 11 4 8 9 7 15 -2 6 -11 11 -11
21 -1 12 12 -1 17 -42 14 -8 0 -18 5 -22 11 -6 9 -8 9 -8 0 0 -7 -4 -13 -10
-13 -14 0 -8 23 10 37 18 15 30 16 30 3z m-430 -10 c0 -5 -5 -10 -11 -10 -5 0
-7 5 -4 10 3 6 8 10 11 10 2 0 4 -4 4 -10z m200 0 c0 -5 -4 -10 -10 -10 -5 0
-10 5 -10 10 0 6 5 10 10 10 6 0 10 -4 10 -10z m440 6 c0 -11 -19 -15 -25 -6
-3 5 1 10 9 10 9 0 16 -2 16 -4z m160 -17 c0 -14 -17 -10 -23 5 -4 10 -1 13 9
9 7 -3 14 -9 14 -14z m-427 5 c11 -11 -3 -24 -18 -18 -8 4 -12 10 -9 15 6 11
18 12 27 3z m-577 -13 c-3 -5 1 -11 9 -14 9 -4 12 -1 8 9 -8 22 20 17 35 -7
11 -16 16 -18 28 -9 9 8 14 9 14 2 0 -14 -37 -25 -51 -16 -7 4 -18 -1 -25 -11
-14 -19 -60 -29 -69 -15 -3 5 4 12 16 15 11 4 18 10 14 13 -6 7 -11 8 -37 11
-17 1 2 18 27 24 33 8 36 7 31 -2z m269 -1 c-3 -5 -10 -10 -16 -10 -5 0 -9 5
-9 10 0 6 7 10 16 10 8 0 12 -4 9 -10z m543 -20 c-2 -30 -18 -43 -18 -15 0 8
-5 15 -10 15 -12 0 10 29 23 30 4 0 6 -13 5 -30z m-938 -17 c0 -7 -26 3 -32
12 -15 20 -8 24 12 8 11 -10 20 -19 20 -20z m486 10 c-10 -10 -46 -11 -40 -1
3 4 15 8 26 8 12 0 18 -3 14 -7z m214 -8 c0 -8 -2 -15 -4 -15 -2 0 -6 7 -10
15 -3 8 -1 15 4 15 6 0 10 -7 10 -15z m495 5 c3 -5 1 -10 -4 -10 -6 0 -11 5
-11 10 0 6 2 10 4 10 3 0 8 -4 11 -10z m-1132 -20 c-5 -19 -43 -45 -43 -30 0
5 5 10 11 10 6 0 8 8 4 19 -5 15 -1 19 13 18 12 -1 18 -7 15 -17z m821 5 c-4
-8 -7 -15 -9 -15 -2 0 -5 7 -9 15 -3 9 0 15 9 15 9 0 12 -6 9 -15z m-548 -20
c-1 -28 -26 -35 -26 -7 0 10 3 22 7 25 13 14 21 6 19 -18z m77 -7 c15 -7 27
-19 27 -26 0 -7 5 -10 11 -6 8 4 8 0 0 -15 -9 -16 -9 -21 1 -21 9 0 9 -3 0
-12 -15 -15 -23 -7 -31 34 -4 21 -16 37 -31 45 -33 17 -12 17 23 1z m207 -9
c0 -6 -4 -7 -10 -4 -5 3 -10 11 -10 16 0 6 5 7 10 4 6 -3 10 -11 10 -16z m230
-10 c0 -5 -7 -9 -15 -9 -8 0 -15 7 -15 15 0 9 6 12 15 9 8 -4 15 -10 15 -15z
m129 -1 c14 -19 5 -23 -18 -9 -7 5 -10 14 -6 21 4 6 8 10 9 8 1 -2 8 -11 15
-20z m511 7 c11 -13 10 -14 -4 -9 -9 3 -16 10 -16 15 0 13 6 11 20 -6z m-1399
-7 c0 -10 2 -10 5 -1 3 7 13 9 21 6 14 -6 14 -7 -3 -13 -23 -8 -56 -1 -48 11
8 13 24 11 25 -3z m296 -29 c-7 -11 -13 -15 -15 -9 -2 5 -10 10 -18 10 -8 0
-14 5 -14 10 0 6 7 10 15 10 8 0 15 5 15 11 0 8 4 8 15 -1 11 -9 12 -16 2 -31z
m883 31 c0 -5 -9 -10 -20 -10 -11 0 -20 5 -20 10 0 6 9 10 20 10 11 0 20 -4
20 -10z m-366 -28 c0 -12 3 -19 7 -16 10 6 49 -17 49 -29 0 -4 -9 -3 -20 3
-14 7 -20 7 -20 0 0 -5 5 -10 12 -10 6 0 9 -3 6 -6 -4 -3 -16 -1 -27 6 -13 6
-21 7 -21 1 0 -14 22 -26 43 -23 20 4 21 -2 7 -28 -9 -16 -8 -18 5 -14 11 5
13 2 9 -10 -3 -9 -10 -16 -14 -16 -4 0 -5 -11 -2 -25 3 -16 0 -25 -8 -25 -7 0
-10 6 -7 14 3 8 -1 22 -8 33 -19 24 -19 43 0 43 8 0 15 4 15 9 0 12 -33 9 -42
-4 -4 -5 -7 20 -5 57 1 40 6 67 12 64 6 -1 10 -12 9 -24z m426 18 c0 -5 -4
-10 -10 -10 -5 0 -10 5 -10 10 0 6 5 10 10 10 6 0 10 -4 10 -10z m-1334 -15
c-3 -8 -1 -15 4 -15 6 0 10 -4 10 -9 0 -5 -9 -7 -20 -4 -23 6 -25 14 -8 31 16
16 21 15 14 -3z m664 5 c0 -5 -4 -10 -10 -10 -5 0 -10 5 -10 10 0 6 5 10 10
10 6 0 10 -4 10 -10z m640 -9 c0 -14 -6 -17 -25 -13 -27 5 -33 17 -12 25 25
11 37 7 37 -12z m244 10 c7 -11 -14 -20 -32 -13 -11 4 -11 6 0 13 17 11 26 11
32 0z m-484 -21 c0 -5 -2 -10 -4 -10 -3 0 -8 5 -11 10 -3 6 -1 10 4 10 6 0 11
-4 11 -10z m174 -5 c-4 -8 -11 -12 -16 -9 -6 4 -5 10 3 15 19 12 19 11 13 -6z
m-430 -3 c2 -4 1 -14 -5 -22 -6 -11 -9 -12 -9 -2 0 7 -4 10 -10 7 -11 -7 -14
8 -3 18 9 9 21 9 27 -1z m540 -7 c4 -12 10 -14 25 -5 16 8 22 6 31 -10 6 -12
9 -26 6 -33 -2 -7 -5 -4 -5 6 -1 9 -4 18 -8 18 -5 1 -18 3 -30 4 -32 3 -53 13
-53 25 0 16 27 12 34 -5z m110 6 c3 -5 -6 -8 -20 -8 -19 0 -22 2 -13 8 18 11
26 11 33 0z m-599 -11 c3 -5 1 -10 -4 -10 -6 0 -11 5 -11 10 0 6 2 10 4 10 3
0 8 -4 11 -10z m345 6 c0 -2 -7 -6 -15 -10 -8 -3 -15 -1 -15 4 0 6 7 10 15 10
8 0 15 -2 15 -4z m-616 -21 c-4 -8 -8 -15 -10 -15 -2 0 -4 7 -4 15 0 8 4 15
10 15 5 0 7 -7 4 -15z m-240 -10 c3 -9 0 -15 -9 -15 -9 0 -12 6 -9 15 4 8 7
15 9 15 2 0 5 -7 9 -15z m136 5 c0 -5 -8 -10 -17 -10 -15 0 -16 2 -3 10 19 12
20 12 20 0z m570 0 c-20 -13 -43 -13 -35 0 3 6 16 10 28 10 18 0 19 -2 7 -10z
m-186 -15 c-4 -8 -10 -15 -14 -15 -4 0 -10 7 -14 15 -4 10 1 15 14 15 13 0 18
-5 14 -15z m-299 -5 c3 -5 -1 -10 -10 -10 -9 0 -13 5 -10 10 3 6 8 10 10 10 2
0 7 -4 10 -10z m645 6 c0 -2 -8 -10 -17 -17 -16 -13 -17 -12 -4 4 13 16 21 21
21 13z m170 -11 c0 -8 -4 -15 -9 -15 -5 0 -11 7 -15 15 -3 9 0 15 9 15 8 0 15
-7 15 -15z m-1287 -2 c-7 -2 -19 -2 -25 0 -7 3 -2 5 12 5 14 0 19 -2 13 -5z
m364 -8 c8 -9 13 -19 9 -22 -3 -4 1 -17 9 -30 17 -25 13 -28 -16 -12 -13 7
-18 16 -14 29 3 10 1 21 -5 25 -11 7 -14 25 -4 25 3 0 12 -7 21 -15z m708 -4
c-3 -6 -11 -11 -16 -11 -5 0 -4 6 3 14 14 16 24 13 13 -3z m174 -7 c3 -16 1
-17 -13 -5 -19 16 -21 34 -3 29 6 -3 14 -13 16 -24z m-675 7 c3 -5 -2 -11 -12
-13 -11 -3 -19 0 -19 8 0 16 23 19 31 5z m602 -8 c-4 -9 -1 -20 6 -25 8 -5 3
-7 -15 -6 -31 3 -62 28 -33 28 9 0 16 5 16 10 0 6 7 10 16 10 11 0 14 -5 10
-17z m-1171 -4 c10 -15 -1 -23 -20 -15 -9 3 -13 10 -10 16 8 13 22 13 30 -1z
m331 -20 c0 -12 -6 -19 -16 -17 -14 3 -21 24 -13 40 7 14 29 -3 29 -23z m81
14 c-9 -2 -14 -9 -11 -15 4 -7 2 -8 -5 -4 -15 10 -4 26 17 25 15 -1 15 -2 -1
-6z m118 -44 c-10 -15 -25 -10 -19 6 4 8 10 12 15 9 5 -3 7 -10 4 -15z m120 5
c6 0 16 -2 23 -2 6 -1 12 -8 12 -16 0 -8 5 -16 12 -18 7 -3 9 -11 4 -24 -6
-12 -10 -15 -13 -6 -3 6 -8 10 -13 7 -4 -3 -8 1 -7 8 1 36 -4 45 -22 40 -11
-3 -21 2 -25 12 -4 11 -2 14 7 8 6 -4 17 -8 22 -9z m122 -6 c-3 -8 -6 -5 -6 6
-1 11 2 17 5 13 3 -3 4 -12 1 -19z m233 12 c0 -5 -5 -10 -11 -10 -5 0 -7 5 -4
10 3 6 8 10 11 10 2 0 4 -4 4 -10z m-739 -40 c5 0 9 -9 9 -20 0 -24 28 -39 40
-21 5 10 11 9 23 -3 14 -15 17 -15 25 0 11 20 47 15 47 -7 0 -18 28 -49 44
-49 6 0 11 5 11 10 0 6 -6 10 -13 10 -18 0 -40 47 -27 55 6 4 10 0 11 -7 0 -7
5 -1 11 15 10 27 28 37 28 16 0 -7 10 -9 25 -7 27 6 32 -1 13 -20 -9 -9 -9
-12 0 -12 13 0 12 -26 -2 -48 -4 -7 -13 -11 -19 -9 -7 2 -20 -7 -31 -20 l-18
-24 -19 30 c-21 34 -39 40 -39 13 0 -23 -40 -27 -41 -4 -1 9 -1 19 -1 22 0 3
-8 7 -19 7 -10 1 -19 -2 -19 -8 0 -5 -4 -9 -10 -9 -5 0 -7 7 -4 15 7 16 -9 19
-41 6 -11 -5 -28 -4 -38 1 -11 5 -16 5 -15 -1 2 -5 0 -9 -4 -10 -5 -1 -8 1 -8
4 0 3 0 10 0 15 0 6 9 10 20 10 16 0 20 7 20 33 0 40 23 70 28 38 2 -12 8 -21
13 -21z m1019 36 c0 -3 -4 -8 -10 -11 -5 -3 -10 -1 -10 4 0 6 5 11 10 11 6 0
10 -2 10 -4z m-570 -16 c0 -5 -4 -10 -10 -10 -5 0 -10 5 -10 10 0 6 5 10 10
10 6 0 10 -4 10 -10z m-597 -34 c-3 -4 -9 -2 -14 5 -13 22 -11 31 5 17 8 -7
12 -17 9 -22z m1102 24 c-3 -5 -14 -10 -23 -10 -15 0 -15 2 -2 10 20 13 33 13
25 0z m-895 -10 c0 -5 -4 -10 -10 -10 -5 0 -10 5 -10 10 0 6 5 10 10 10 6 0
10 -4 10 -10z m240 0 c0 -5 -8 -10 -17 -10 -15 0 -16 2 -3 10 19 12 20 12 20
0z m70 -2 c0 -4 -5 -8 -11 -8 -5 0 -7 -4 -4 -10 9 -15 -4 -12 -21 4 -20 21
-18 26 11 24 14 -1 25 -6 25 -10z m600 -18 c13 -8 13 -10 -2 -10 -9 0 -20 5
-23 10 -8 13 5 13 25 0z m-400 -10 c8 -5 11 -10 5 -10 -5 0 -17 5 -25 10 -8 5
-10 10 -5 10 6 0 17 -5 25 -10z m200 -6 c0 -7 -10 -9 -25 -6 -32 6 -32 20 0
18 14 0 25 -6 25 -12z m267 2 c-3 -7 0 -19 6 -25 6 -6 7 -14 3 -18 -9 -9 -26
16 -26 40 0 9 5 17 11 17 6 0 9 -6 6 -14z m-707 -6 c0 -5 -2 -10 -4 -10 -3 0
-8 5 -11 10 -3 6 -1 10 4 10 6 0 11 -4 11 -10z m-25 -20 c-3 -5 4 -15 16 -23
21 -15 12 -31 -13 -22 -7 3 -22 -1 -33 -9 -17 -13 -18 -15 -3 -16 9 0 18 5 20
12 2 6 9 8 16 4 18 -11 -8 -46 -35 -46 -13 0 -23 5 -23 10 0 6 -9 10 -20 10
-27 0 -25 17 3 26 24 7 64 44 47 44 -19 0 -10 16 10 17 11 1 18 -2 15 -7z
m275 -9 c0 -14 -6 -17 -25 -13 -19 3 -24 1 -20 -9 3 -8 -5 -19 -18 -25 -22
-10 -24 -8 -23 14 1 20 7 25 31 28 16 2 31 8 33 14 6 17 22 11 22 -9z m125 9
c3 -5 1 -10 -4 -10 -6 0 -11 5 -11 10 0 6 2 10 4 10 3 0 8 -4 11 -10z m-968
-26 c-3 -3 -16 -4 -29 -2 l-23 5 25 10 c23 10 41 1 27 -13z m669 12 c13 -13
20 -46 10 -46 -2 0 -11 -3 -20 -6 -10 -4 -16 -1 -16 10 0 10 -6 13 -15 10 -8
-4 -15 -1 -15 6 0 6 4 9 9 6 5 -3 14 0 20 8 9 11 9 15 -1 19 -10 4 -10 6 0 6
7 1 20 -5 28 -13z m-971 -55 c-10 -9 -25 14 -24 37 l1 27 13 -30 c7 -16 12
-32 10 -34z m464 35 c17 -21 -4 -30 -23 -10 -9 8 -16 17 -16 20 0 10 29 3 39
-10z m108 -3 c2 -6 -7 -9 -22 -8 -14 2 -25 -1 -25 -6 0 -6 -5 -7 -11 -3 -8 4
-7 9 2 15 7 4 17 5 21 3 4 -3 8 0 8 6 0 14 22 8 27 -7z m473 -3 c0 -5 -7 -7
-15 -4 -8 4 -15 8 -15 10 0 2 7 4 15 4 8 0 15 -4 15 -10z m-940 -4 c0 -3 -4
-8 -10 -11 -5 -3 -10 -1 -10 4 0 6 5 11 10 11 6 0 10 -2 10 -4z m60 -17 c0
-11 -27 -12 -34 0 -3 4 -3 11 0 14 8 8 34 -3 34 -14z m1160 11 c0 -5 -4 -10
-10 -10 -5 0 -10 5 -10 10 0 6 5 10 10 10 6 0 10 -4 10 -10z m-1280 -12 c0 -4
-7 -8 -15 -8 -8 0 -15 4 -15 8 0 5 7 9 15 9 8 0 15 -4 15 -9z m290 2 c0 -5 -2
-10 -4 -10 -3 0 -8 5 -11 10 -3 6 -1 10 4 10 6 0 11 -4 11 -10z m-268 -12 c-8
-8 -9 -15 0 -25 14 -17 4 -27 -19 -19 -15 6 -15 8 -3 16 8 6 11 10 6 10 -9 0
13 30 22 30 3 0 1 -5 -6 -12z m163 -10 c6 -4 2 -8 -7 -8 -10 0 -18 7 -18 17 0
9 3 12 8 7 4 -5 12 -12 17 -16z m325 12 c0 -5 -4 -10 -10 -10 -5 0 -10 5 -10
10 0 6 5 10 10 10 6 0 10 -4 10 -10z m23 -5 c-3 -9 -8 -14 -10 -11 -3 3 -2 9
2 15 9 16 15 13 8 -4z m147 5 c0 -5 -4 -10 -10 -10 -5 0 -10 5 -10 10 0 6 5
10 10 10 6 0 10 -4 10 -10z m416 -24 c3 -24 14 -33 14 -12 0 9 5 14 10 11 14
-9 13 -35 -2 -35 -6 0 -19 -7 -29 -16 -20 -18 -35 -10 -58 34 -9 18 -9 22 2
22 7 0 18 -5 24 -11 8 -8 13 -8 17 0 4 6 2 11 -4 11 -6 0 -8 5 -5 11 10 15 28
6 31 -15z m-1151 4 c3 -5 1 -10 -4 -10 -6 0 -11 5 -11 10 0 6 2 10 4 10 3 0 8
-4 11 -10z m614 -11 c-21 -12 -19 -39 2 -39 10 0 19 -5 19 -11 0 -6 7 -8 16
-5 10 4 13 2 8 -7 -4 -6 2 -4 13 6 27 24 48 22 23 -3 -11 -11 -29 -20 -39 -20
-11 0 -23 -4 -26 -10 -3 -5 -11 -10 -17 -10 -6 0 -5 7 3 17 12 14 12 16 -1 11
-8 -2 -23 6 -33 19 -10 13 -25 23 -33 23 -8 0 -14 9 -14 20 0 20 18 23 33 5 5
-6 12 -4 19 6 7 10 18 15 26 12 11 -5 11 -7 1 -14z m-471 2 c11 -7 11 -9 -1
-14 -9 -3 -18 1 -21 9 -6 16 2 18 22 5z m269 3 c-3 -3 -12 -4 -19 -1 -8 3 -5
6 6 6 11 1 17 -2 13 -5z m260 -10 c2 -6 -8 -14 -22 -16 -28 -6 -27 -6 -19 17
7 17 35 17 41 -1z m88 6 c3 -6 -1 -7 -9 -4 -18 7 -21 14 -7 14 6 0 13 -4 16
-10z m-565 -10 c0 -5 -4 -10 -10 -10 -5 0 -10 5 -10 10 0 6 5 10 10 10 6 0 10
-4 10 -10z m834 -32 c20 -14 29 -8 15 8 -12 15 -11 16 11 9 13 -4 31 -14 39
-22 12 -13 12 -16 0 -24 -12 -8 -12 -10 1 -18 10 -7 20 -6 30 3 29 24 36 25
38 0 1 -13 -3 -24 -9 -24 -6 0 -9 -6 -7 -12 6 -17 -19 -41 -33 -32 -8 4 -9 3
-5 -4 4 -7 3 -12 -2 -12 -6 0 -8 -9 -5 -19 3 -12 -3 -26 -16 -37 -12 -10 -21
-25 -22 -34 0 -10 -2 -11 -6 -2 -2 6 -13 12 -24 12 -12 0 -16 5 -13 14 3 8 1
17 -5 21 -13 7 -14 64 -2 83 6 11 10 10 15 -3 3 -10 1 -25 -6 -33 -11 -13 -10
-15 5 -9 15 5 16 2 12 -24 l-6 -30 30 17 c29 17 32 44 5 44 -9 0 -14 11 -14
29 0 20 -6 30 -20 34 -13 3 -18 10 -14 21 3 9 1 16 -6 16 -6 0 -9 4 -6 9 3 5
-3 11 -15 14 -18 5 -19 8 -7 26 11 19 13 19 22 3 5 -9 14 -20 20 -24z m-229
22 c3 -5 -1 -10 -10 -10 -10 0 -14 -5 -9 -12 5 -10 4 -10 -6 -1 -7 6 -9 16 -6
22 9 14 23 14 31 1z m63 -7 c-21 -5 -24 -23 -5 -24 6 -1 1 -4 -12 -8 -14 -4
-26 -13 -29 -21 -2 -10 -1 -11 5 -4 12 17 74 26 89 13 8 -6 21 -9 29 -5 9 3
15 0 15 -9 0 -16 -63 -50 -68 -37 -5 17 -34 48 -29 32 3 -10 -3 -15 -19 -16
-42 -3 -74 -14 -74 -26 0 -9 3 -9 12 0 13 13 48 16 48 4 0 -4 -9 -13 -20 -20
-12 -7 -18 -17 -15 -22 3 -6 4 -10 1 -10 -2 0 -12 -3 -21 -6 -12 -5 -16 -2
-13 12 2 11 -6 22 -19 29 -17 9 -20 14 -11 23 7 7 17 12 24 12 16 0 25 38 10
44 -6 3 -1 3 12 0 17 -4 30 1 47 20 13 14 32 25 42 25 17 -1 17 -2 1 -6z m63
-8 c-18 -8 -38 -15 -45 -14 -15 1 46 28 64 28 8 0 0 -6 -19 -14z m-846 -4 c10
-17 -15 -23 -31 -7 -14 15 -14 16 5 16 11 0 22 -4 26 -9z m60 -30 c-6 -5 -25
10 -25 20 0 5 6 4 14 -3 8 -7 12 -15 11 -17z m325 19 c0 -5 -2 -10 -4 -10 -3
0 -8 5 -11 10 -3 6 -1 10 4 10 6 0 11 -4 11 -10z m-57 -17 c-7 -2 -19 -2 -25
0 -7 3 -2 5 12 5 14 0 19 -2 13 -5z m87 -2 c0 -5 -9 -11 -20 -14 -22 -6 -28 8
-7 16 19 8 27 8 27 -2z m-473 -7 c-3 -3 -12 -4 -19 -1 -8 3 -5 6 6 6 11 1 17
-2 13 -5z m1233 -4 c0 -5 -4 -10 -9 -10 -6 0 -13 5 -16 10 -3 6 1 10 9 10 9 0
16 -4 16 -10z m44 -5 c-4 -8 -8 -15 -10 -15 -2 0 -4 7 -4 15 0 8 4 15 10 15 5
0 7 -7 4 -15z m-744 -5 c0 -5 -4 -10 -10 -10 -5 0 -10 5 -10 10 0 6 5 10 10
10 6 0 10 -4 10 -10z m-640 -10 c0 -5 -8 -10 -17 -10 -15 0 -16 2 -3 10 19 12
20 12 20 0z m285 0 c3 -6 -1 -7 -9 -4 -18 7 -21 14 -7 14 6 0 13 -4 16 -10z
m545 5 c0 -2 -15 -12 -32 -20 -26 -12 -29 -13 -15 -1 14 10 15 15 5 19 -7 3
-1 6 15 6 15 1 27 -1 27 -4z m485 -5 c3 -5 1 -10 -4 -10 -6 0 -11 5 -11 10 0
6 2 10 4 10 3 0 8 -4 11 -10z m-1090 -10 c3 -5 1 -10 -4 -10 -6 0 -11 5 -11
10 0 6 2 10 4 10 3 0 8 -4 11 -10z m535 1 c0 -5 -13 -16 -29 -24 -26 -13 -28
-13 -24 3 3 12 11 16 24 13 10 -3 19 0 19 6 0 6 2 11 5 11 3 0 5 -4 5 -9z
m-215 -19 c-9 -10 -45 -12 -45 -4 0 15 11 20 31 15 11 -3 17 -8 14 -11z m-580
-22 c-10 -11 -21 -18 -23 -15 -6 6 31 44 37 39 2 -2 -4 -13 -14 -24z m350 16
c35 2 41 -3 27 -21 -11 -15 -30 -17 -54 -4 -11 6 -18 7 -14 1 3 -5 -4 -12 -17
-16 -32 -8 -47 -7 -47 4 0 6 7 10 15 10 9 0 18 7 21 15 4 8 10 12 15 9 5 -3 9
1 10 8 0 7 2 8 5 3 2 -6 20 -10 39 -9z m952 -8 c-3 -8 -6 -5 -6 6 -1 11 2 17
5 13 3 -3 4 -12 1 -19z m-1362 2 c3 -5 1 -10 -4 -10 -6 0 -11 5 -11 10 0 6 2
10 4 10 3 0 8 -4 11 -10z m765 -21 c0 -5 -13 -9 -30 -9 -21 0 -28 4 -24 14 5
14 54 10 54 -5z m645 11 c3 -5 1 -10 -4 -10 -6 0 -11 5 -11 10 0 6 2 10 4 10
3 0 8 -4 11 -10z m-334 -9 c-25 -7 -42 -31 -22 -31 6 0 8 -7 5 -15 -7 -18 -23
-19 -47 -1 -16 12 -16 17 -5 35 10 16 22 21 53 20 32 -1 35 -2 16 -8z m-785
-26 c0 -14 -5 -25 -9 -25 -5 0 -5 -4 -2 -10 3 -5 1 -10 -5 -10 -7 0 -10 7 -6
15 6 18 -15 20 -31 4 -13 -13 -33 -4 -33 16 0 10 9 12 35 8 28 -4 35 -2 35 11
0 9 4 16 9 16 5 0 8 -11 7 -25z m1076 3 c-7 -7 -12 -8 -12 -2 0 6 3 14 7 17 3
4 9 5 12 2 2 -3 -1 -11 -7 -17z m47 -10 c12 -15 11 -18 -3 -18 -10 0 -16 8
-16 22 0 12 1 19 3 17 1 -2 9 -12 16 -21z m-839 -4 c0 -8 -5 -12 -10 -9 -6 4
-8 11 -5 16 9 14 15 11 15 -7z m131 3 c-6 -8 -7 -18 -3 -22 4 -5 1 -5 -5 -1
-19 10 -16 36 3 36 13 0 14 -3 5 -13z m-607 -56 c-2 -2 -12 3 -22 12 -10 10
-24 17 -30 17 -6 0 -9 6 -6 13 4 10 12 7 33 -12 16 -14 27 -28 25 -30z m1076
49 c0 -13 -11 -13 -30 0 -12 8 -11 10 8 10 12 0 22 -4 22 -10z m-963 -36 c-3
-3 -13 0 -21 9 -8 8 -12 18 -9 21 4 4 14 0 22 -9 8 -8 12 -17 8 -21z m803 22
c0 -3 -4 -8 -10 -11 -5 -3 -10 -1 -10 4 0 6 5 11 10 11 6 0 10 -2 10 -4z
m-243 -13 c-9 -2 -15 -9 -12 -14 4 -5 -1 -9 -9 -9 -9 0 -16 4 -16 9 0 11 19
20 40 19 10 0 9 -2 -3 -5z m103 -3 c0 -5 -8 -10 -17 -10 -15 0 -16 2 -3 10 19
12 20 12 20 0z m314 -5 c-4 -8 -13 -15 -21 -15 -13 0 -13 3 -3 15 7 8 16 15
21 15 5 0 6 -7 3 -15z m-1148 -14 c8 6 18 8 22 4 4 -4 1 -10 -6 -12 -6 -3 -9
-10 -5 -16 4 -7 0 -8 -11 -4 -10 4 -21 7 -26 7 -4 0 -5 10 -2 23 5 18 7 19 10
4 3 -15 7 -16 18 -6z m1029 9 c-3 -5 -14 -10 -23 -9 -14 0 -13 2 3 9 27 11 27
11 20 0z m-620 -20 c3 -5 1 -10 -4 -10 -6 0 -11 5 -11 10 0 6 2 10 4 10 3 0 8
-4 11 -10z m375 -9 c0 -6 -4 -13 -10 -16 -5 -3 -10 1 -10 9 0 9 5 16 10 16 6
0 10 -4 10 -9z m316 -28 c-11 -11 -19 6 -11 24 8 17 8 17 12 0 3 -10 2 -21 -1
-24z m-1030 7 c0 -11 -3 -20 -7 -20 -10 0 -19 27 -12 34 12 11 19 6 19 -14z
m670 5 c17 -16 14 -18 -10 -9 -9 3 -16 10 -16 15 0 13 9 11 26 -6z m308 -9
c-3 -9 -10 -16 -15 -16 -14 0 -11 28 4 33 16 6 19 3 11 -17z m683 18 c-3 -3
-12 -4 -19 -1 -8 3 -5 6 6 6 11 1 17 -2 13 -5z m-1277 -23 c0 -17 -18 -21 -24
-6 -3 9 0 15 9 15 8 0 15 -4 15 -9z m245 -1 c-3 -5 -12 -10 -18 -10 -7 0 -6 4
3 10 19 12 23 12 15 0z m1055 -10 c-19 -12 -30 -12 -30 -1 0 10 31 20 40 14 2
-2 -2 -8 -10 -13z m-970 -10 c-6 -11 -16 -20 -23 -19 -9 0 -9 2 1 6 6 2 12 11
12 19 0 8 5 14 10 14 7 0 7 -6 0 -20z m590 -2 c0 -13 -23 -5 -28 10 -2 7 2 10
12 6 9 -3 16 -11 16 -16z m165 2 c-3 -5 -11 -10 -16 -10 -6 0 -7 5 -4 10 3 6
11 10 16 10 6 0 7 -4 4 -10z m-1460 -20 c-16 -18 -16 -20 -2 -20 10 0 17 -4
17 -10 0 -14 -13 -13 -28 2 -9 9 -8 16 5 30 9 10 18 18 21 18 3 0 -3 -9 -13
-20z m1014 -1 c-22 -14 -33 -10 -19 6 7 8 17 12 22 9 6 -4 5 -10 -3 -15z m93
4 c-6 -2 -10 -9 -6 -14 3 -5 0 -9 -5 -9 -12 0 -14 13 -4 23 3 4 11 7 17 6 6 0
5 -3 -2 -6z m183 -17 c18 4 25 1 30 -16 7 -23 -4 -44 -12 -22 -9 25 -25 11
-20 -18 4 -16 2 -32 -4 -36 -16 -10 -22 3 -21 43 1 20 -3 40 -10 44 -6 4 -7
12 -2 20 7 11 9 10 12 -4 3 -12 10 -15 27 -11z m62 9 c0 -8 -4 -12 -9 -9 -4 3
-8 9 -8 15 0 5 4 9 8 9 5 0 9 -7 9 -15z m103 -35 c0 -16 7 -30 16 -34 12 -5
14 -1 9 17 -4 14 1 11 15 -12 14 -21 18 -37 12 -43 -14 -14 -62 31 -62 57 0
12 -3 24 -6 28 -10 10 -32 -17 -26 -32 3 -7 -7 -3 -22 10 -24 21 -25 24 -9 30
10 3 21 2 24 -3 3 -5 9 -3 12 6 10 25 37 7 37 -24z m-305 11 c-3 -6 -11 -11
-16 -11 -5 0 -4 6 3 14 14 16 24 13 13 -3z m-1182 -21 c6 -23 1 -25 -17 -7
-13 13 -10 41 4 32 4 -2 10 -14 13 -25z m257 26 c0 -2 -9 -6 -20 -9 -11 -3
-18 -1 -14 4 5 9 34 13 34 5z m1475 -16 c3 -5 -1 -10 -10 -10 -9 0 -13 5 -10
10 3 6 8 10 10 10 2 0 7 -4 10 -10z m-160 -10 c3 -6 15 -6 30 0 19 7 23 6 18
-5 -3 -8 -9 -12 -14 -9 -5 3 -9 0 -9 -5 0 -6 -9 -11 -20 -11 -11 0 -20 2 -20
4 0 2 -3 11 -6 20 -7 17 11 22 21 6z m-1529 -18 c1 -7 0 -8 -3 -2 -2 5 -9 8
-14 4 -5 -3 -9 0 -9 6 0 15 23 7 26 -8z m1189 -1 c-8 -14 -25 -14 -25 0 0 5 5
7 10 4 6 -3 10 -1 10 6 0 7 3 10 6 6 3 -3 3 -10 -1 -16z m165 -26 c0 -6 -7
-12 -15 -12 -8 0 -15 4 -15 9 0 4 5 8 11 8 8 0 7 6 -2 18 -13 15 -12 16 4 3 9
-7 17 -19 17 -26z m303 28 c-7 -2 -19 -2 -25 0 -7 3 -2 5 12 5 14 0 19 -2 13
-5z m-1503 -13 c0 -5 -5 -10 -11 -10 -5 0 -7 5 -4 10 3 6 8 10 11 10 2 0 4 -4
4 -10z m993 3 c4 -3 2 -12 -3 -18 -11 -14 -63 -8 -54 6 3 5 9 7 14 4 5 -3 11
-1 15 5 7 11 19 13 28 3z m167 -9 c0 -14 -3 -14 -15 -4 -8 7 -15 14 -15 16 0
2 7 4 15 4 8 0 15 -7 15 -16z m-1003 -1 c-4 -3 0 -14 9 -24 9 -10 14 -25 11
-34 -7 -17 -27 -20 -27 -4 0 6 -8 8 -17 5 -12 -4 -9 1 7 15 14 11 19 18 13 14
-8 -3 -13 0 -13 8 0 14 9 27 18 27 3 0 2 -3 -1 -7z m1303 -8 c7 -9 8 -15 2
-15 -5 0 -12 7 -16 15 -3 8 -4 15 -2 15 2 0 9 -7 16 -15z m-1142 -26 c-3 -36
-9 -41 -28 -28 -12 9 -13 11 -1 16 11 5 11 7 0 14 -11 7 -10 9 4 9 9 0 17 5
17 10 0 6 2 10 5 10 3 0 4 -14 3 -31z m62 21 c0 -5 -5 -10 -11 -10 -5 0 -7 5
-4 10 3 6 8 10 11 10 2 0 4 -4 4 -10z m870 -21 c0 -12 -5 -16 -15 -13 -8 4
-15 12 -15 18 0 7 7 13 15 13 8 0 15 -8 15 -18z m-1163 5 c-3 -3 -12 -4 -19
-1 -8 3 -5 6 6 6 11 1 17 -2 13 -5z m963 1 c0 -7 -30 -13 -34 -7 -3 4 4 9 15
9 10 1 19 0 19 -2z m554 -24 c-2 -3 -12 3 -22 13 -16 17 -16 18 5 5 12 -7 20
-15 17 -18z m-647 13 c-3 -3 -12 -4 -19 -1 -8 3 -5 6 6 6 11 1 17 -2 13 -5z
m-977 -16 c0 -5 -7 -8 -17 -8 -9 0 -14 -3 -10 -6 3 -4 -1 -13 -9 -22 -19 -18
-35 -4 -28 24 4 16 13 21 35 20 16 0 29 -4 29 -8z m256 4 c-8 -13 38 -34 65
-30 20 2 24 -1 24 -24 1 -15 5 -31 10 -35 4 -4 5 -2 1 5 -4 7 -1 12 8 12 9 0
16 -7 16 -15 0 -8 14 -22 31 -30 l30 -16 -5 40 c-2 23 -3 41 -1 41 2 0 11 3
20 7 16 6 16 4 0 -20 -15 -24 -16 -27 -1 -27 9 0 13 6 10 13 -3 8 2 14 10 14
18 0 32 -30 17 -35 -6 -2 -11 -10 -11 -18 0 -8 -4 -14 -10 -14 -14 0 -1 -28
17 -34 11 -4 13 -2 10 9 -4 8 -2 17 3 20 6 4 9 -14 7 -44 -2 -41 -5 -51 -19
-51 -22 0 -23 -7 -3 -26 8 -9 20 -12 26 -8 7 4 10 2 8 -5 -3 -7 -9 -13 -14
-13 -17 0 -45 -18 -45 -29 0 -6 4 -8 8 -5 4 2 14 1 22 -5 12 -7 12 -9 -3 -9
-10 0 -16 -4 -13 -9 3 -5 -2 -8 -12 -7 -11 1 -16 -6 -15 -17 0 -10 -1 -16 -4
-13 -3 3 -21 -1 -40 -9 -26 -11 -40 -12 -55 -4 -18 9 -20 9 -15 -4 4 -11 0
-15 -11 -15 -9 0 -25 -3 -34 -7 -11 -4 -18 -3 -18 4 0 6 -4 11 -10 11 -5 0
-10 -7 -10 -15 0 -8 -4 -15 -9 -15 -17 0 -23 20 -12 34 16 19 -2 24 -63 19
-43 -3 -48 -2 -42 14 4 9 4 14 0 10 -4 -4 -13 -2 -19 3 -9 8 -14 6 -18 -5 -4
-8 -12 -12 -20 -9 -7 2 -26 0 -42 -6 -25 -9 -26 -9 -15 5 7 8 19 15 27 15 8 0
12 4 8 10 -3 5 -12 7 -20 3 -8 -3 -15 0 -15 7 0 18 -27 40 -49 40 -12 0 -21 5
-21 10 0 6 5 10 11 10 5 0 7 5 3 11 -5 8 -8 8 -13 0 -5 -8 -13 -5 -25 8 -18
20 -18 20 10 18 23 -2 28 2 26 16 -2 11 4 17 16 17 22 0 37 26 21 36 -5 3 -18
3 -27 -1 -16 -6 -16 -5 0 11 14 14 20 15 33 4 26 -22 26 -6 -1 23 -14 15 -20
27 -13 27 6 0 9 7 6 15 -4 8 -1 17 5 21 7 4 8 3 4 -4 -5 -8 0 -12 13 -12 12 0
21 7 21 15 0 8 6 15 13 15 6 1 -1 7 -18 14 l-30 14 35 -2 c23 -1 37 -7 42 -18
4 -10 15 -18 23 -18 9 0 14 4 11 9 -3 5 0 13 7 18 17 13 57 14 57 1 0 -7 5 -6
14 1 10 8 16 9 21 1 3 -5 1 -10 -5 -10 -6 0 -9 -4 -5 -10 9 -14 37 0 31 16 -3
8 1 14 9 14 8 0 14 3 14 8 -2 12 1 22 7 22 3 0 3 -4 0 -8z m165 -23 c-20 -8
-23 -6 -15 14 4 13 9 14 19 4 11 -10 10 -13 -4 -18z m709 27 c0 -3 -4 -8 -10
-11 -5 -3 -10 -1 -10 4 0 6 5 11 10 11 6 0 10 -2 10 -4z m-1246 -27 c-17 -7
-17 -8 -1 -8 9 -1 17 -5 17 -10 0 -10 -50 -25 -58 -16 -3 3 3 5 12 5 13 0 16
5 12 16 -8 22 1 34 21 27 15 -6 14 -7 -3 -14z m211 11 c3 -6 -1 -7 -9 -4 -18
7 -21 14 -7 14 6 0 13 -4 16 -10z m435 -15 c8 -11 10 -17 6 -13 -5 4 -14 3
-21 -2 -8 -7 -11 -3 -9 13 3 30 4 31 7 26 1 -2 9 -13 17 -24z m765 15 c3 -5
-1 -10 -10 -10 -9 0 -13 5 -10 10 3 6 8 10 10 10 2 0 7 -4 10 -10z m-495 -26
c10 -10 11 -14 2 -14 -7 0 -12 5 -12 10 0 6 -8 10 -17 10 -10 0 -25 5 -33 11
-11 8 -8 9 15 4 17 -3 37 -13 45 -21z m-157 3 c19 4 20 3 6 -9 -9 -7 -14 -18
-12 -24 2 -7 -6 -10 -24 -7 -15 2 -36 5 -45 7 -28 4 -31 14 -8 21 15 5 26 1
36 -12 14 -17 15 -17 13 2 -2 28 2 42 7 29 3 -7 15 -10 27 -7z m77 -7 c0 -5
-7 -10 -15 -10 -8 0 -15 5 -15 10 0 6 7 10 15 10 8 0 15 -4 15 -10z m-307 -17
c-7 -2 -21 -2 -30 0 -10 3 -4 5 12 5 17 0 24 -2 18 -5z m712 -3 c3 -6 -1 -7
-9 -4 -18 7 -21 14 -7 14 6 0 13 -4 16 -10z m165 -5 c0 -8 5 -15 12 -15 6 0 9
-3 5 -6 -3 -3 -12 -2 -19 2 -7 5 -26 7 -43 6 l-30 -1 30 14 c39 18 45 18 45 0z
m850 9 c0 -4 -8 -13 -17 -21 -16 -13 -14 -14 20 -8 30 5 37 3 37 -10 0 -9 4
-14 9 -11 13 8 41 -4 41 -18 0 -6 15 -18 33 -27 28 -14 32 -21 32 -55 0 -23
-6 -44 -15 -51 -13 -11 -11 -13 10 -14 17 -1 20 -3 8 -6 -10 -2 -18 -11 -18
-18 0 -8 -6 -12 -14 -9 -11 4 -13 0 -9 -15 4 -17 -2 -24 -28 -35 -19 -8 -37
-12 -42 -9 -4 2 -15 -1 -23 -8 -13 -10 -17 -10 -23 0 -11 18 -23 13 -48 -22
-13 -17 -23 -26 -23 -20 0 7 5 15 10 18 12 8 -12 35 -32 35 -7 0 -22 7 -32 15
-11 8 -30 15 -43 15 -13 0 -27 9 -34 22 -9 17 -9 20 3 15 8 -3 21 -1 29 4 12
7 12 9 -1 9 -8 0 -20 11 -27 25 -6 14 -7 23 -2 19 5 -3 9 -1 9 5 0 5 -6 11
-12 14 -8 2 -1 15 20 34 32 31 43 57 19 48 -6 -3 -17 3 -24 14 -10 16 -9 20 4
25 9 4 19 2 23 -4 5 -7 11 -6 20 5 7 8 21 15 32 15 15 0 19 -5 15 -20 -3 -11
-1 -20 4 -20 5 0 9 7 9 15 0 9 11 20 24 25 13 5 27 14 31 19 7 12 25 15 25 5z
m-2191 -43 c-6 -2 -15 3 -20 10 -15 24 -10 29 11 11 12 -10 16 -18 9 -21z
m1251 29 c0 -5 -2 -10 -4 -10 -3 0 -8 5 -11 10 -3 6 -1 10 4 10 6 0 11 -4 11
-10z m-391 -23 c-2 -1 -13 -9 -24 -17 -19 -14 -19 -14 -6 3 7 9 18 17 24 17 6
0 8 -1 6 -3z m-114 -27 c3 -5 2 -10 -4 -10 -5 0 -13 5 -16 10 -3 6 -2 10 4 10
5 0 13 -4 16 -10z m40 -8 c-3 -3 -11 0 -18 7 -9 10 -8 11 6 5 10 -3 15 -9 12
-12z m322 2 c-3 -3 -12 -4 -19 -1 -8 3 -5 6 6 6 11 1 17 -2 13 -5z m188 -4
c-3 -5 -12 -7 -20 -3 -21 7 -19 13 6 13 11 0 18 -4 14 -10z m705 -8 c0 -4 -9
-8 -20 -9 -11 -1 -20 2 -20 8 0 5 9 9 20 9 11 0 20 -4 20 -8z m-1285 -22 c-3
-5 -12 -7 -20 -3 -21 7 -19 13 6 13 11 0 18 -4 14 -10z m85 6 c0 -3 -4 -8 -10
-11 -5 -3 -10 -1 -10 4 0 6 5 11 10 11 6 0 10 -2 10 -4z m280 -6 c0 -5 -5 -10
-11 -10 -5 0 -7 5 -4 10 3 6 8 10 11 10 2 0 4 -4 4 -10z m-460 -15 c11 -13 10
-14 -4 -9 -9 3 -16 10 -16 15 0 13 6 11 20 -6z m555 -25 c-5 -9 -45 -21 -45
-14 0 3 6 11 12 18 13 14 42 10 33 -4z m475 0 c0 -5 -2 -10 -4 -10 -3 0 -8 5
-11 10 -3 6 -1 10 4 10 6 0 11 -4 11 -10z m-1763 -22 c-3 -8 -6 -5 -6 6 -1 11
2 17 5 13 3 -3 4 -12 1 -19z m979 1 c0 -9 -5 -15 -12 -12 -6 2 -14 -3 -17 -11
-4 -9 -12 -16 -19 -16 -9 0 -9 3 2 10 18 11 8 22 -21 24 -45 2 -28 21 19 21
37 0 48 -4 48 -16z m-149 -15 c-2 -2 -12 -1 -22 3 -18 6 -18 7 1 13 17 7 33
-5 21 -16z m516 -4 c-3 -11 -10 -20 -15 -20 -5 0 -6 5 -2 12 5 8 0 9 -14 6
-12 -4 -22 -2 -22 2 0 5 10 11 23 13 12 2 25 5 29 6 3 0 4 -8 1 -19z m-1296 4
c-3 -3 -12 -4 -19 -1 -8 3 -5 6 6 6 11 1 17 -2 13 -5z m1023 -16 c0 -6 -6 -5
-15 2 -8 7 -15 14 -15 16 0 2 7 1 15 -2 8 -4 15 -11 15 -16z m667 0 c-3 -8 -6
-5 -6 6 -1 11 2 17 5 13 3 -3 4 -12 1 -19z m343 12 c0 -5 -4 -10 -10 -10 -5 0
-10 5 -10 10 0 6 5 10 10 10 6 0 10 -4 10 -10z m-1281 -3 c-2 -1 -13 -9 -24
-17 -19 -14 -19 -14 -6 3 7 9 18 17 24 17 6 0 8 -1 6 -3z m219 -42 c-3 -3 -9
2 -12 12 -6 14 -5 15 5 6 7 -7 10 -15 7 -18z m1447 -15 c3 -5 1 -10 -4 -10 -6
0 -11 5 -11 10 0 6 2 10 4 10 3 0 8 -4 11 -10z m-1790 -10 c3 -6 -1 -7 -9 -4
-18 7 -21 14 -7 14 6 0 13 -4 16 -10z m430 1 c3 -5 1 -12 -5 -16 -5 -3 -10 1
-10 9 0 18 6 21 15 7z m265 -12 c0 -6 -4 -7 -10 -4 -5 3 -10 11 -10 16 0 6 5
7 10 4 6 -3 10 -11 10 -16z m-30 -3 c0 -3 -4 -8 -10 -11 -5 -3 -10 -1 -10 4 0
6 5 11 10 11 6 0 10 -2 10 -4z m-36 -39 c7 -6 6 -7 -4 -4 -8 2 -16 12 -17 23
-2 13 -1 15 4 4 3 -8 11 -19 17 -23z m-45 19 c-2 -2 -17 -6 -34 -10 -22 -5
-26 -4 -15 4 14 9 59 15 49 6z m-149 -20 c0 -2 -8 -10 -17 -17 -16 -13 -17
-12 -4 4 13 16 21 21 21 13z m-746 -61 c3 -8 1 -15 -4 -15 -6 0 -10 7 -10 15
0 8 2 15 4 15 2 0 6 -7 10 -15z m854 -5 c7 -11 9 -20 4 -20 -10 0 -32 22 -32
32 0 15 15 8 28 -12z"/>
<path d="M1520 2325 c0 -8 7 -15 16 -15 14 0 14 3 4 15 -7 8 -14 15 -16 15 -2
0 -4 -7 -4 -15z"/>
<path d="M1530 2289 c0 -5 5 -7 10 -4 6 3 10 8 10 11 0 2 -4 4 -10 4 -5 0 -10
-5 -10 -11z"/>
<path d="M1760 2135 c0 -7 9 -15 21 -18 15 -4 19 -1 17 10 -4 19 -38 27 -38 8z"/>
<path d="M800 1461 c0 -5 7 -11 15 -15 8 -3 15 -1 15 3 0 5 -7 11 -15 15 -8 3
-15 1 -15 -3z"/>
<path d="M3005 1390 c-3 -5 -1 -10 4 -10 6 0 11 5 11 10 0 6 -2 10 -4 10 -3 0
-8 -4 -11 -10z"/>
<path d="M1820 3630 c0 -5 7 -10 15 -10 8 0 15 5 15 10 0 6 -7 10 -15 10 -8 0
-15 -4 -15 -10z"/>
<path d="M930 2362 c0 -5 -14 -6 -31 -4 -20 3 -30 1 -26 -6 8 -12 63 -21 78
-11 6 4 8 12 5 18 -8 13 -26 15 -26 3z"/>
</g>
</svg>
